<svg id="katman_1" data-name="katman 1" xmlns="http://www.w3.org/2000/svg" viewBox="0 0 1873.35 1078.95"><defs><style>.cls-1{fill:#fae37f;stroke:#575756;stroke-width:2px;}.cls-1,.cls-2{stroke-miterlimit:10;}.cls-2{fill:none;stroke:#be1622;}.cls-3{font-size:8.59px;}.cls-12,.cls-15,.cls-19,.cls-21,.cls-22,.cls-23,.cls-24,.cls-25,.cls-27,.cls-29,.cls-3,.cls-30,.cls-31,.cls-32,.cls-33,.cls-34,.cls-35,.cls-37,.cls-40,.cls-41,.cls-44,.cls-46,.cls-48,.cls-6,.cls-9{fill:#575756;font-family:ArialMT, Arial;}.cls-4{letter-spacing:-0.07em;}.cls-5{letter-spacing:-0.06em;}.cls-6{font-size:8.83px;}.cls-7{letter-spacing:-0.07em;}.cls-8{letter-spacing:0em;}.cls-9{font-size:20.95px;}.cls-10{letter-spacing:-0.07em;}.cls-11{letter-spacing:0em;}.cls-12{font-size:9.9px;}.cls-13{letter-spacing:-0.07em;}.cls-14{letter-spacing:-0.06em;}.cls-15{font-size:13.2px;}.cls-16{letter-spacing:-0.02em;}.cls-17{letter-spacing:-0.07em;}.cls-18{letter-spacing:-0.07em;}.cls-19{font-size:13.73px;}.cls-20{letter-spacing:-0.06em;}.cls-21{font-size:7.26px;}.cls-22{font-size:57.07px;}.cls-23{font-size:32.26px;}.cls-24{font-size:78.13px;}.cls-25{font-size:46.62px;}.cls-26{letter-spacing:-0.07em;}.cls-27{font-size:9.76px;}.cls-28{letter-spacing:-0.02em;}.cls-29{font-size:7.25px;}.cls-30{font-size:23.23px;}.cls-31{font-size:38.81px;}.cls-32{font-size:38.81px;}.cls-33{font-size:25.2px;}.cls-34{font-size:7.79px;}.cls-35{font-size:7.35px;}.cls-36{letter-spacing:-0.04em;}.cls-37{font-size:5.64px;}.cls-38{letter-spacing:-0.07em;}.cls-39{letter-spacing:-0.06em;}.cls-40{font-size:25.96px;}.cls-41{font-size:30.53px;}.cls-42{letter-spacing:-0.07em;}.cls-43{letter-spacing:-0.06em;}.cls-44{font-size:16.49px;}.cls-45{letter-spacing:-0.07em;}.cls-46{font-size:11.13px;}.cls-47{letter-spacing:-0.07em;}.cls-48{font-size:16.73px;}.cls-49{letter-spacing:-0.07em;}</style></defs><g id="A"><path id="path" class="cls-1" d="M815.14,215.82V203l-4-6.84-9-8.12c-2.49-4.25-.2-13.61-1.26-18.2,7.57-3.28,7.09-3,12-9.53l-6.5-3.84-6.61-8.2-1.76-7.37c.39-2.57,1.47-8.71,2.83-10.94l-2.83-6,4.6-6.36-4.6-1.76L791,119.69c-4.46-.83-14.69-6-18.77-8.11V102.4L758.78,95l-2.12-8.82c-13-11.89-8.24-10.7-25.85-14.82C719.92,75,706.7,81,695.41,83.7l-16.64-4.23-13.1-8.12C661.5,67.12,650,55.49,646.55,50.89l-6,4.94-7.79,2.47-15.58-1.06-4.6,5.29-5.67,3.53L597,63.59l-5.31-3.18L585,63.24l-1.77,6.35,3.19,3.53-3.19,2.47a81.31,81.31,0,0,1,8.5,12.35l-4.25,4.23-4.25,1.41c1.68,6.55,5.31,15.68,10.27,20.47l1.42-7.77,3.18-1.41,3.9-5.29.7-2.82h5.85c1.89,2.39,5.83,7.23,7.79,9.52l1.42,8.47,2.83,6,10.27,7.06-7.08,2.11v3.43c3.29,1.93,9.86,5.87,13.1,7.87l5,7.76c22.58,2.52,27.72,6.42,44.25,21.52,13,5,27.41,16.76,36.83,26.82,0,0,9.56,4.23,9.56,5.64-.4,7.5-1.58,17.32-2.48,24-3.53,8-2.86,7.09-1.77,15.52l6.37,7.06,8.14,6.35,4.61,8.82,7.43-1.41L753,255.18c2.61-.67,7.78-6.57,9.56-8.46l1.07-5.65,4.24-4.23c.47-2.37.93-4.75,1.4-7.12,12.75-1.72,15.32-1.78,26.37-9.11l11.58.6Z" transform="translate(1 -0.05)"/><path id="road" class="cls-2" d="M654.9,59.85c-6.86,2.86-14.84,9.08-21.82,11.65v7.68l-1.65,2.73h-4.95V90.4l-8.74,1.69-8-5.47-7.09,5.19c-4.55-.41-14.79.81-19.36,1.54" transform="translate(1 -0.05)"/><path id="road-2" data-name="road" class="cls-2" d="M710.13,79.18l3.25,7.44v6.7l12.36,8.39h-8v8.05l-7.88-1.89-4.79-4a270.09,270.09,0,0,1-30.22-1.24l-8-2.83-12,.47-4.1,4.25-10.39-4h-4v9.15c4.22,5.67,10.5,13.48,13.22,20.07,9.9,7.46,20.64,20.58,30.67,28l5.82,12.75" transform="translate(1 -0.05)"/><path id="road-3" data-name="road" class="cls-2" d="M717.23,109.41h7.46c-1.49,3.59-5.12,10.64-7.52,13.67l3.76,6.36,9.2,4.48-5.44,2.36,5.44,8.49L724.69,149H714.48v4.71l-4.89,3.66-3.91,8.6c0,3.67,0,11.88,0,15.48" transform="translate(1 -0.05)"/><path id="road-4" data-name="road" class="cls-2" d="M721.17,148.83a125.84,125.84,0,0,0,13.7,12.28h8.49l7,6.71-5,5.14v6.85h-9.9V177s-5.9-1.42-5.9,0-2.9,9.44-2.9,9.44l.11,12.64" transform="translate(1 -0.05)"/><path id="road-5" data-name="road" class="cls-2" d="M744.79,179.72l5,6.14,7.32,5.67-1.89,11.22a200.68,200.68,0,0,0,4.72,21.37l5.2,5.19h3.83" transform="translate(1 -0.05)"/><path id="road-6" data-name="road" class="cls-2" d="M756.1,203.52l3.48-7.21,3.91-4.4h5.26l4,2v-6.36c9,0,21.3-.16,30.28.46" transform="translate(1 -0.05)"/><text id="text" class="cls-3" transform="translate(760.04 210.35)">MAKEDON<tspan class="cls-4" x="43.42" y="0">Y</tspan><tspan class="cls-5" x="48.51" y="0">A</tspan></text><text id="text-2" data-name="text" class="cls-6" transform="translate(750.72 250.13) rotate(-91.42)">ARN<tspan class="cls-7" x="18.64" y="0">A</tspan><tspan class="cls-8" x="23.88" y="0">VUTLUK</tspan></text><text id="text-3" data-name="text" class="cls-9" transform="translate(730.63 86.49) rotate(68.32)">SIRBİS<tspan class="cls-10" x="68.68" y="0">T</tspan><tspan class="cls-11" x="79.92" y="0">AN</tspan></text><text id="text-4" data-name="text" class="cls-12" transform="translate(592.23 82.71) rotate(-19.26)">SLOVEN<tspan class="cls-13" x="40.18" y="0">Y</tspan><tspan class="cls-14" x="46.05" y="0">A</tspan></text><text id="text-5" data-name="text" class="cls-15" transform="translate(628.31 95.4)">HI<tspan class="cls-16" x="13.2" y="0">R</tspan><tspan class="cls-17" x="22.49" y="0">VA</tspan><tspan x="38.13" y="0">TİS</tspan><tspan class="cls-18" x="58.66" y="0">T</tspan><tspan x="65.74" y="0">AN</tspan></text><text id="text-6" data-name="text" class="cls-19" transform="translate(665.08 121.8)">BOSN<tspan class="cls-20" x="38.9" y="0">A</tspan><tspan x="-4.57" y="16.47">HERSEK</tspan></text><text id="text-7" data-name="text" class="cls-21" transform="translate(709.85 173.42)">KARADAĞ</text></g><g id="B"><path id="path-2" data-name="path" class="cls-1" d="M900,216.66h5.32v-9.45l-5.25-3.34,5.25-8.11h32l2.38,10.49c6.58,4.89,17.88,12.81,26.71,14.79,1.43-.48,8.11-1.91,8.11-1.91l11.92,1.93h32.3l4.72-6.78c9.16-4.88,30.87-15.94,40.62-18.82l35.9,2.41,8-6.28,3.31,7.24,5.2,4.83,16.53,2.67,9.44,11.81,9-3.38,9,6.3,15.59,2.39,9,5.31h14.63l8-3.75,17.37-.47,7.51,4.22a163.13,163.13,0,0,0,24.88-10.33l11.27-7.74,7.51,3.05c4.77-.9,17.44-3.28,21.6-5.63,7.86,9.26,19.7,16.09,27.7,25.23l-4.23,6c0,19.83,33,11.61,30.11,24.63l-3.61,1.58q-2,3.22-4,6.43l-6.58,1.88c5.7,9.21,7.41,23.29,14.74,31.36-.06,1.32-.1,2.13-.17,3.46a54.91,54.91,0,0,1-5.17,4.7,82.31,82.31,0,0,1,5.18,6.58c3.37-.94,7.07,3.67,4.7,7.53l8.47,11.29h-4.45l-6.36,7.33c-3.45-3.75-3.58-3.72-4.4-8.8l-6.35-1.47-6.36,3.43c-3.38-2.29-13.13-4.15-17.11-4.89h-8.5l-2.79,4.64-5.57,1.4-2.32-5.11c-29.76,15.33-27.63-3.85-59.46,17.18l-11.61,2.79h-12c-3.17-2-9.85-5.75-13.23-7.44-5,1.49-16.24,5.14-20.78,7.44H1176l-6.62-4.4h-5.65l-1.39,7.41,4.17,10.19h-7.59l-.92,8.25-4.13,2.75h-6.21a102.61,102.61,0,0,0-4.23-17.84l5.17-4.7,4.23-6.57-3.29-2.79h-6.24l-3.3,6.11-8.26,5.66a142.49,142.49,0,0,0-15.35-8L1106,353.68l-5.66,9-6.61,5.66c-6.44,1.73-20,4.51-26.62,5.67l-10.68-4.72-11.33-10.39-10.86-4.72-12.75-3.31-9.45,1.42v9.91l-2.36,5.2h-5.6L994.63,370l-11.33-.95-8-9-2.84-5.67-2.36.95c-10-4.89-9-6.25-17.94.94l-3.31-6.14,5.67-7.08-7.09.94-11.8-1.42-.48-6.14-8.88-6.14v-5.66l1.8-7.09s-2.83-2.36-4.25-2.36S913,309.07,913,309.07V303.4l10.75.47-.47-3.3-9.18-2.84v-4.65l6-2.83c-4.6-3.67-7.94-10.75-10.08-16.06l6.41-4.73c-4.6-.48-14.25.9-18.79,1.89V259.3c2.48-4.79,10.25-11.33,14.49-14.49,5.85.59,14.53.46,20.39.45l-.91-4.53,6.8-.45,2.26,5.89,14.5-.91L960.6,238l8.61-3.63-6.34-7.7-14-.45L940.67,224a86.09,86.09,0,0,1-14,5.89l-10,5.44-5.88,5-2.72-3.17c-3.69.31-11.13.56-14.82.45v-3.8l3.87-4.75C897.83,225.94,899.29,219.74,900,216.66Z" transform="translate(1 -0.05)"/><text id="text-8" data-name="text" class="cls-22" transform="translate(993.99 302.65)">TÜRKİYE</text></g><g id="C"><path id="path-3" data-name="path" class="cls-1" d="M1155.1,378.66c-2.33.36-5,.66-7.44.81-.84,2.19-1.67,4.39-2.51,6.58l5.5,6.62v18.42l4.56,4.68h6.62a101.79,101.79,0,0,1,7.52,15.34L1163,434l-.48,4.85h-4.91l-3.06,6.61-5.2,7.09c-1.14,4.58-1,17.83-.94,22.67l9.2-1.89,14.14,12.12,4.85.54c32.41-18.84,66.91-42.2,98.29-62.44,13.45-23.66,9.42-17.36,9.93-44-1.72-4-5.3-13.7-5.69-18.06l5.69-3.7c10.63.44,23.68-12.05,16.57-21.77l-9.94,3.7-12.79,2.32h-16.1c-18.57,9.06-33,19-53,8.74l-3.79-4.57c-5.88,2.46-18.71,7.66-24.63,9.72l-7.49-1.75-6.24-3.34h-6.63l2.84,12.5,3.79,4.64-8.53.46Z" transform="translate(1 -0.05)"/><text id="text-9" data-name="text" class="cls-23" transform="translate(1161.24 410.75)">SURİYE</text></g><g id="Ç"><path id="path-4" data-name="path" class="cls-1" d="M1348.69,264c7.16,5.27,21.34,16.45,27.91,22.32l16.61,4.75c11.06-5,9.64-4.11,17.09-13.53l14.24-9.73,9.49-1.42,9.49,6.64-3.79,4.51c.77,2.11,2.82,6.71,3.79,8.78l-6.17,2.38c.68,2,11.6,9.53,13.29,10.91l9,4.75,3.32,13.29,6.65,10.92c6.49,1.33,21.41,4.57,27.53,6.64l14.71,13.32,25.63,10.89,20.41-3.32,24.69-7.57,13.76,2.82-6.64-15.19,13.76-.95c4.1-4,10.85-13.57,13.77-18.51l11.39-5,15.19,3.09,2.37-5.69h21.46l6.61,7.56,14.17,2.83,8,6.61,22.67.47a144.83,144.83,0,0,1,13.22,16.63h9l9.44,11.71,23.6,1.89v9.92l6.6,16.06c0,7.45,0,23.7,0,31l-7.7,4.33,4.33,4.81-6.26,5.3c-1.39,15.17-2.71,12.32,9.63,21.65l-3.37,11.55,11.07,30.81v15.2l10.23,6,16.75,3.73,2.79,10.23c-1.43,4.93-16.16,27.32-19.07,32.09,6.88,7.44,20.36,26.73,26,35.35,6,3.18,25.81,13.28,30.7,17.68.89,6.33,2.34,20.38,1.86,26.66,17.55-1.62,12.5-2.05,13.2,13.69,0,1.41-4.33,4.72-4.33,4.72-3.43.54-15.46,2.93-18.77,2.36v4.26l-9.45,3.78-4.85,17v13.7l-5.07,4.25s-12.75-1.89-14.64-2.84-9.92-4.72-9.92-4.72c-17.57,1.58-43.57-3.33-60.92-6.14l-22.2-9-6.61-14.17-6.14-19.84-9.45-6.61-13.7,1.89-9,4.72-2.83,6.61c-10.73,1.71-10.34,1.59-19.37,7.56l-12.28-5.19-18.89-1.89-6.61-5.67-18.89-9.92-3.78-9.45c-14.83-8.39-11.5-8.13-28.81-9.44l-8.5-11.81-4.73-12.75-6.61-8-4.25-12.75-19.36-23.62-9.92,5.67L1500,549l-.47-7.82h-6.61l-1.42,13.49-9,1.41-5.71-8.8-6.57-5.84-2.84-15.66h-8.2l-1.89-8.43,1.89-16.48-13.57-17.39c-9.74-4.62-24.17-14.06-32-21.49l.47-5.29-18.84-18.24-.89-12.31-5.64-8,9.4,1.88-1.36-8.74c3.67-6,3.78-5.78,9.82-9.11L1400,390.91l2.82-7.05,6.11-3.29h-16l-10-4.74c-5.86-10.3-14-25.27-18-36.5-6.59-8-11.76-18.12-18.41-26,2.47-.9,5.21-6.94,4.66-8.64-6.47-8.51-8.83-21.7-14.22-30.8l6.64-1.9Z" transform="translate(1 -0.05)"/><text id="text-10" data-name="text" class="cls-24" transform="translate(1522.01 486.03)">İRAN</text></g><g id="D"><path id="path-5" data-name="path" class="cls-1" d="M1303.52,340.71l6.71-3.15,1.79-3.19h14.64l10.39,4.93,6.14-3.31,6.14,1.42,2.29,6.26,2,2.24,6.14-7.14h5l2.89,9.16L1373.8,358c2,4.57,6.58,13.49,9.13,17.77,11.58,6.28,12.18,4.7,24.55,4.81l-5.61,5.61-1.87,4.67c1.36,1.49,7,10.62,7.48,12.63l-7,2.11-3.74,4.67.47,7.71h-8.42l4.21,7.48.94,11.22c4.64,5.35,14.51,15.66,19.63,20.57V465l8.94,3.29,13.16,9.84,11.75,6.1s10.35,11.25,10.35,12.66,1.88,13.13,1.88,13.13l-2.82,8.44,2.82,8.44h6.58l3.76,14.06,8.46,7.5,3.77,7h-8.94l-13.16-2.82c-15.29,3.24-20,18.4-25.29,31.29-14.41-.28-33.33-3.84-47.59-6-7.15-5.31-17.87-13.35-30.8-23.38-35.22-27-37.5-32.6-85.21-53.85-6.85-4.23-21.38-8.45-29.27-8.57v-5.53l-6-2.36c-1.75-6.79-7.71-23-10.27-29.69,16.82-15,51.24-30,59.15-49.4V384.64c-1.36-4.75-5.27-18.43-5.9-23.14l9.92-3.31,10.39-6.14Z" transform="translate(1 -0.05)"/><text id="text-11" data-name="text" class="cls-22" transform="translate(1259.68 477.62)">IRAK</text></g><g id="E"><path id="path-6" data-name="path" class="cls-1" d="M1139.63,575.45l-2.83,17c-.87,3.65-4.61,16.59-3.75,20.23h15.24c8.32,16.21,25.17,39.44,34.59,55.26l10.44,17,12.33,14.17c0,2.1,0,9.53,0,11.47l6.17,13.68,5.22,6.12h9.13L1237,742.64l11.86,18.86,8.54,18.86c0,7,0,21.29,0,28.29l5.69,21.21c4.26,4.31,14.46,15,18.5,19.33h9.27l20.3,25,11.07,29.25L1342,929.39l19.84,35.86c0,8.41,0,26.13,0,34.44,3.37,12.07,10.8,33.72,14.3,46.7-.35,20.38-.55,14.52,8.77,31.61h17.67c11.12-8.6,7.24-3.83,18.54-2.83l10-10.86,11.41-8,20.91-.47,37.08-18.42,20.44-1s8.08-17.47,9-16.05,79.38-32.58,79.38-32.58V971.28l7.13-7.08,23.77-7.56,23.29-11.81,12.36,2.37,10.45-3.78V934l3.33-7.55,4.28-5.67,12.83-1.42,13.31-4.72,4.28-19.36,17.11-8,10.46-.47-4.75-13.22,1-20.31L1752,841s3.33-4.25,5.23-2.36a69.2,69.2,0,0,1,5.23,6.61l4.28-4.73,4.75-11.33,14.73-17.94,11.41-26.45-4.28-5.19-10.45-5.67c-3.47-4.39-16.59-21.49-20.44-25l-27.1-6.61-19-8-10.46-13.69-5.7-14.17-1.9-16.05-2.38-4.72,2.85-12.28-2.37-9-4.28.94-3.33,10.86c-3.61,4.63-14.21,15.16-18.54,19.36-4.2,7-14.55,21.66-19.49,28.34-5.42,3.08-18.59,7-24.71,8.5L1608,730.92l-12.84,4.72-10.93.47-7.13-6.61-7.13-10.86,4.75-8.5,1.9-9.44-5.7-9,3.8-7.56c-2.26-1.8-11.14-13.67-13.78-12.75-2.48,5.5-5.75,19.84-8.08,24.56l3.32,17c-5.79-9.27-18.42-29.73-24.24-39.19l2.85-5.67-1.42-10.38c-8.45-7.5-20.08-17.64-26.62-26.92l-10.46-3.31-1-10.86c-2.75-3.58-10-13-11.88-17L1473,579.34l-9.51-7.56,7.13-4.72-1.9-8-5.23-4.65h-10.68l-6.14,5.48c-2.61,6.1-8.63,18.23-11.8,24.09-57-5-39.78.51-84.24-33.93-15-12-46.78-34-63.48-43.4-9.45-3.46-36.67-13.67-45.93-16.66-14.08,8.22-36.05,13.84-50.92,20.75V514A303.18,303.18,0,0,1,1213.78,541l-7.08,2.83-2.84,9.45-7.08,4.43H1185L1174.13,574l-9.94,6.14C1158.35,579.32,1145.16,577.13,1139.63,575.45Z" transform="translate(1 -0.05)"/><path id="road-7" data-name="road" class="cls-2" d="M1437.18,581.29l16.53,2.84c8.09,7.89,8.19,5.61,11.33,17,5.08.24,14.93-.13,19.84-1.42" transform="translate(1 -0.05)"/><polyline id="road-8" data-name="road" class="cls-2" points="1558.14 712.8 1560.5 719.88 1572.97 719.88"/><path id="road-9" data-name="road" class="cls-2" d="M1577.55,729.21,1589,747.84l17.48,20.3c15.83,2.37,54,8,69.42,9.92V765a86,86,0,0,0,4.4-28.18l8.8-2.36v-7.56l-5.37-6.61,1-11.34h6.55l2.84,7.8,2.36-7.8,3.78-2.36" transform="translate(1 -0.05)"/><path id="road-10" data-name="road" class="cls-2" d="M1675.91,778.06l9.91,13.23c1.28,18.71-5.11,45.35-9.91,63.29-1.05,4.66-70.41,29.22-75.57,31.64,8,18.18,23.83,54.85,31.59,73.11" transform="translate(1 -0.05)"/><path id="road-11" data-name="road" class="cls-2" d="M1600.75,886.22c-21.7,5.48-66.54,17.17-87.85,23.14l-57.15,77.93-1.89-28-48.64-25.41-17.48,2.84-9.92-5.67-6.61,8.5c.44,15-.19,11.67-6.61,24.56" transform="translate(1 -0.05)"/><text id="text-12" data-name="text" class="cls-25" transform="translate(1311.75 698.26)">SUUDİ<tspan x="-57.86" y="55.94">ARABİS</tspan><tspan class="cls-26" x="113.13" y="55.94">T</tspan><tspan x="138.14" y="55.94">AN</tspan></text><text id="text-13" data-name="text" class="cls-27" transform="matrix(0.62, 0.78, -0.78, 0.62, 1448.87, 566.21)">KUVEY<tspan class="cls-28" x="33.09" y="0">T</tspan></text><text id="text-14" data-name="text" class="cls-29" transform="matrix(0.13, -0.99, 0.99, 0.13, 1565.4, 713.73)">BAHREYN</text><text id="text-15" data-name="text" class="cls-30" transform="translate(1614.63 754.2)">B.A.E</text><text id="text-16" data-name="text" class="cls-31" transform="translate(1672.96 915.19) rotate(-48.26)">UMMAN</text><text id="text-17" data-name="text" class="cls-32" transform="translate(1445.48 1030.69) rotate(-25.89)">YEMEN</text></g><g id="F"><path id="path-7" data-name="path" class="cls-1" d="M1225.42,454.31c2.58,6.78,8.49,22.83,10.25,29.69l5.18,2.36v3.31l-7.71,5.19-17.27,5.67-17,4.72-10.38,6.14,9,12.75,15.09,14.65-5.19,5.19-3.77,9c-9.78,4.44-8.84,5.14-20,4.73l-12.37,18.89-12.84,3.31-18.79-4.73v-8c4.56-8.29,2.49-18.3,3.21-27.39,2.08-6.08,2.67-16.18,2.29-22.64,5.57-10.77,2.49-30.23,2.83-42.07l8-.47,12.26,9.45,10.37,2.36C1192.15,476.93,1210.55,461.63,1225.42,454.31Z" transform="translate(1 -0.05)"/><text id="text-18" data-name="text" class="cls-33" transform="translate(1162.65 577.35) rotate(-67.58)">ÜRDÜN</text></g><g id="G"><path id="path-8" data-name="path" class="cls-1" d="M1139.63,574l-24.09-56.64,9.45-15.62c3.56-21.47,11.86-46.12,20.16-66.12v-9.92l6.76-7.56,7.08-2.36c5.54,4.2,7.73,9.19,10.36,15.3-3.73,3-5.87,4.85-7,9.73l-5.2,1-1.41,6.14-6.88,6.67c-.25,14.9-1.16,47.66-1.62,62.79l-5.34,21.69v21.73Z" transform="translate(1 -0.05)"/><polyline id="road-12" data-name="road" class="cls-2" points="1137.35 461.37 1146.7 461.37 1146.7 454.77 1149.45 454.77"/><path id="road-13" data-name="road" class="cls-2" d="M1148.18,477.91l-2.88,6.63-5.67-3.32h-4.89l-2.24,9.46v8.14h4.15l-4.15,14.31c8.2.23,8.25.15,15.63-3.31" transform="translate(1 -0.05)"/><text id="text-19" data-name="text" class="cls-34" transform="translate(1149.16 452.63) rotate(-66.03)">LÜBNAN</text><text id="text-20" data-name="text" class="cls-35" transform="translate(1122.29 523.72)">İSRAİ<tspan class="cls-36" x="19.19" y="0">L</tspan></text><text id="text-21" data-name="text" class="cls-37" transform="translate(1143.48 510.14) rotate(-86.79)">FİLİSTİN</text></g><g id="Ğ"><path id="path-9" data-name="path" class="cls-1" d="M1135.25,569.31l-2.2,4.72v11.33l-2.39,10.87-4.21,8v14.42l-4.19,6.06-6.52-4.19-7-7.93-11.17-9.33-3.72-13.53a225.82,225.82,0,0,1-14-21.45l-2.33-11.66-6,7c1.43,4.11,6.47,18.49,7.91,22.39L1096.2,615l7.15,7v10.26c14.37,7.36,8.79,10.5,15.65,21.92,7.84,23.32,26.08,52.37,37.7,74.16,1.4.47,12.1,9.79,12.1,9.79H1159c1,5.67,3.76,19.9,5.59,25.19l-7.92,7.93s-8.42-3.26-8.17,0c0,3.74-5.5,17-8.09,16.79-2.35,0-10.73,3.27-10.73,3.27l-6,13.06-14-3.27-8.37-5.6c-24.77,1.65-184.2,0-211.55,0-2-14-2.48-239.32-14.62-244.81l8-17.45-5.19-16,4.25-9c16.83-.91,39,3.22,55.73,5.41,8.77,6.78,6.67,6.65,17.94,8,9.18,4.3,14.71,1.17,23.15,7.56l15.11-.47,15.11-13.23,5.67,1.93,3.31-3.71h7.08l9.45-5.3,16.53,5.3h7.08l14.17,8.4,13.7.94,14.17-.94,15.11-4.69C1120.72,534,1133.16,551.7,1135.25,569.31Z" transform="translate(1 -0.05)"/><text id="text-22" data-name="text" class="cls-22" transform="translate(929.77 675.72)">MISIR</text></g><g id="H"><path id="path-10" data-name="path" class="cls-1" d="M885.54,508.38V498.23L875.14,495H859.56c-6.37-1.79-20.09-5.86-26.22-8.08l-3.54-11.33-19.13-5.89H799.79l-27,7.1-17,9.22-4.26,14.9c7,13.22,6.62,9.68,6.38,24.82L748,542l-17.73,3.55h-9.34L711,532.81a177.48,177.48,0,0,1-22.64-9.22c-13.8-.21-31.82-4.75-44.57-9.94-2.87-7-10.55-25.6-14.15-31.92L614.8,479.6c-13.35-14.2-37.41-8.92-54.47-9.93-3.77-1.91-16.15-7.74-19.11-10.64-2.16,6.14-3.57,17.74-2.61,25.13-13.23,3.69-23.42,11.26-32.74,21.14-3.26,12.6-1.2,15.62,2.1,27.51-5.73,4.47-18,16.1-23.35,21.28l9.2,14.19,2.83,24.12-.71,22c3.19,13.27,1.34,31.94.71,45.4l-13,12.92c6.52,6.35,15,19.84,17.91,28.22l5,18.44,7.07,3.55,10.61-3.55c12,6.45,25.08,20.27,29,33.34,10.11,2.77,32,5.06,41.74,10.64,0,2.13,13.45,12.77,13.45,12.77L629,770.45l21.23-14.19,13.44,1.42c56.22,32.14,147.59,79.12,201.63,114.92l1.42-13.48,25.47-2.84c-.55-6,2-65.1-2.83-68.3-2-5.69-2.09-239.38-14.17-235.91,2.39-4.1,6.38-14.13,8-18.66l-5.9-17.47Z" transform="translate(1 -0.05)"/><text id="text-23" data-name="text" class="cls-22" transform="translate(609.23 653.2)">LİB<tspan class="cls-38" x="85.66" y="0">Y</tspan><tspan class="cls-39" x="119.49" y="0">A</tspan></text></g><g id="I"><path id="path-11" data-name="path" class="cls-1" d="M540.4,459.49,529.12,456v-6.73c-3.63-1.55-22.74-8-26.4-10.42V425.67L513.45,420l12.15-14.53.72-13.36c-4.58-11.06-5.21-10.07-13.59-17.87L512,363.46l10-3.57,5.72-12.37L522,343.44l-11.44,10-7.87-12.87-10-5-12.15,3.57L457,359.89c6.18,12.64,1.28,34.9.09,48.33-5.65,14.56-4.15,11.07-15.93,20.78v11.39l3.52,19,9.14,7,9.14,16.88,11.26,5.63,9.84,21.8v25.59l3.26,14.52,20-18.05-2.44-19.26,1-8.22,7.34-4.55L523.66,490l15-5.87L538.28,468Z" transform="translate(1 -0.05)"/><text id="text-24" data-name="text" class="cls-40" transform="translate(494.73 477.62) rotate(-91.24)">TUNUS</text></g><g id="İ"><path id="path-12" data-name="path" class="cls-1" d="M446.53,347.57l-12-5.91-5.67,9.21L409,341.66l-3.54,6.17c-3.48,1-12.71,3.78-16.29,3l-2.84,5c-11.89-6.8-9.27-7.31-23.38-8l-17.71.91-23.38,7.63c-5-.87-32.81,3.56-38.27,4.2l-21.7,6.3-11.2,12.6H236.16c-9.17,6.92-30.41,20.16-40.46,26l6.39,5.91,4.25,12.78c.93,12,2.06,29.92,2.84,41.88l7.1,13.49h5.6l-4.29,9.3-.72,5H177.55L169,501l-17.16,5.72v18.67c-11.69,3.63-27.8,14.18-38.14,20.53l-8.07,8.8-9.53,7.34H79.2l-5.86,4.4H63.72c-10.34,6.9-31,21.12-41.08,28.33l-3.54,29,3.54,14.88c85.72,56,163.23,124.18,245.75,184.84q.71,6,1.42,12l9.21,3.54,6.37,9.21,16.29,2.83,21.25,12-2.13,23.37c18.79,1.87,54.64-9.22,72.24-14.16,42.86-49.31,106.06-83.72,158.1-122l-10.79-20-13.46-9.55-14.16-1.42-9.21-3.54-2.12-16.29L494.31,684l-10.62-11.33A184.43,184.43,0,0,0,495.88,657c1.64-15.37.15-34.13-.86-49.44,1.62-19.9-4.07-43.1-8.92-62.07-2.33-20.2,1.1-55.51-23.28-62.13l-5.66-12.75L444.4,459.26c-6.5-10.6-6-34.26,7.8-39l5.9-20.06,1.72-23.16v-9.21l-2.66-7.79,7.08-12.51Z" transform="translate(1 -0.05)"/><text id="text-25" data-name="text" class="cls-22" transform="translate(191.05 605.29)">CEZ<tspan class="cls-38" x="114.14" y="0">A</tspan><tspan x="147.97" y="0">YİR</tspan></text></g><g id="J"><path id="path-13" data-name="path" class="cls-1" d="M193.35,406.12l-16.8-5.43-4.9-3.53-25.89,4.48-24.49-4.48-4.9-16.94-16.8,2.83c-3.92,15.86-13,36.35-21.69,50.12L60.39,447.28l-24.5,9.18s-13.29,10.59-14,12.71-9.8,14.12-9.8,14.12v14.82L0,505.87v120H19.8l2.61-29.21a348.5,348.5,0,0,1,41.37-30.09l9.88,4.94,9.18-8.47,14.83-.7c6-5.62,19-16.79,25.89-21.12l27.77-16.3a105.08,105.08,0,0,0,.48-14.81c27.9-23.05,33.57-14.91,66.87-15.73-1.3-2.91.62-12.45,3.2-14.82-15.76-5.05-13.22-27.45-14.5-40.92C204.25,427.52,209,410.09,193.35,406.12Z" transform="translate(1 -0.05)"/><text id="text-26" data-name="text" class="cls-22" transform="translate(41.05 510.03)"><tspan class="cls-39">F</tspan><tspan x="31.71" y="0">AS</tspan></text></g><g id="P"><path id="path-14" data-name="path" class="cls-1" d="M745,75c6.88,5.52,13.36,15.51,18.38,22.64l8.84,5v9.2a128.88,128.88,0,0,1,16.41,9.55l5.93-3.55,9.08-.7-3.92,4.25-.5,6.1,9.31,5.57v7.79h11.89l16.8,3.5,22.84.66,13.06,3.27c11.83-10.41,10.63-9.08,25.19-14.13l19.83.48,26.23,10.14c.49-4.19,2.07-16.51,1.66-20.55l4-6.72c.48-2.74,2.11-7.92,3.61-10.26l2.89,6.36a75,75,0,0,0,12.63-5V92.64s-7.58,1.77-8.66,1.77-11.91,5-11.91,5l-9.39-1.06-8.66-7.08L928,79.9l-.72-12.38,2.17-12c-3.84-5.57-12.92-16-17.69-20.88-5-6.44-13.81-19.46-21.3-23.7-1.08,0-9.74,2.47-9.74,2.47l-5.05,5.31-16.25,1.77-6.49,4.25-8.67-.36-5.77-4.6H819l-8.73-2.83-10,3.49-4.68,3.94-9.34,2.92c-2.44,4.27-10.65,20.69-13,25.39l-9.42,13.8-10.47,6.37Z" transform="translate(1 -0.05)"/><text id="text-27" data-name="text" class="cls-41" transform="translate(774.11 93.29)">ROMAN<tspan class="cls-42" x="113.65" y="0">Y</tspan><tspan class="cls-43" x="131.74" y="0">A</tspan></text></g><g id="R"><path id="path-15" data-name="path" class="cls-1" d="M935,195.76l-2.13-6.28L924,181.81l5.5-4.88v-8l3.37-8.72,5-4.53,8.16-1.74V144.7l-8.83-1.77-5.3-6-11.67-2.12-9.54-3.53-14.49,3.18-12.36,5-9.19,8.48L859.46,144l-17.67.35-10.24-1.76-7.78-2.83-14.13.71v-8.08L804,129.55l-5.32,5v10.27c5,9.41,4.43,8.72,13.12,14.88l-1.06,5L804,169.93l-2.13,4.25-.36,10.63c2.25,7.44,5.13,8.78,10.83,13.32q1.71,8.84,3.43,17.65l17.68-1.92,19.16-5,13.49,6.88a218.08,218.08,0,0,0,22.85.88l4.14-3.46-.95-8.37,4.26-1.4,5-3.83a52.31,52.31,0,0,1,13.42-3.84h6.45l5.68,1.4Z" transform="translate(1 -0.05)"/><text id="text-28" data-name="text" class="cls-44" transform="translate(812.62 174.3)">BULGARİS<tspan class="cls-45" x="83.4" y="0">T</tspan><tspan x="92.25" y="0">AN</tspan></text></g><g id="S"><path id="path-16" data-name="path" class="cls-1" d="M893.24,233.16l-11.61-6.6H851.78l-7.11,6.6h-6.4c2.13,6.55.94,10-1.78,16l5.33,4.6-12.43-5.66-9.24-1.77-3.91-6.18V233.9l-7,4.58s.37,6.05,0,7.15,1.83,9.9,1.83,9.9l6.24,9.17,8.8,7.7c.24,6.08,3,13.28,7.33,17.6l7.33,4.77,8.8,1.83,2.86,5.87H838.6c-3.29-3.29-9.91-9.92-13.2-13.2H813.51c8.35,8.15,22.08,12.16,31.52,19.09,3.66,12.54,5.65,25.5-6.73,8.15-1.3-3.26-14-.49-14.88-.36a88.8,88.8,0,0,0,10.28,17.72l-9.92-2.13-7.09-4.6s2.48,9.21,2.48,10.27,5.67,10.42,5.67,10.42l1.42,12.25-9.57-8.5-7.12,4.25a13.34,13.34,0,0,0-16.25-3.19c-4.69-5.24-4-5.45-5.32-12l2.13-3.19L788,331l-3.19-5-6.73-5-1.41-3.89,4.6-7.44,7.09-.71,4.25-2.83,7.44.35,5,4.25,14.53,5.67,6.73-5.67a103.61,103.61,0,0,0-14.53-5c-4.29-2.87-5.25-4.44-10.27-1.06-7.43-.21-19.23-1.38-26.56-1.25l-4.25-8.67L765,291l2.12-2.83,6.38-2.24-1.77-2.72-8.5-1.06a95.19,95.19,0,0,1-11.34-9.21l-2.12-7.09,5.31-2.12-.71-6.38c2.67-4.54,6.55-8,10.27-11.69a127.17,127.17,0,0,1,4.61-15.94c4.93-.43,14.94-1.92,19.83-2.83,3.22-4.15,16-9.39,21.06-8.73,6.26-4.55,16.68-5.36,21.45-4.38,19.36-6.51,18-5.73,37.2,1.42,13.39,2.84,11.16,3,24.47-.35,0-2.23.3-8.27-1-10.21,10.39-2.48,13.67-.51,11.62,9.9l-4.15,2.83-2.27,9.08Z" transform="translate(1 -0.05)"/><text id="text-29" data-name="text" class="cls-46" transform="translate(787.59 299.41) rotate(-76.19)">YUNANİS<tspan class="cls-47" x="49.48" y="0">T</tspan><tspan x="55.45" y="0">AN</tspan></text></g><g id="Ş"><path id="path-17" data-name="path" class="cls-1" d="M646.26,49.9l5-1.41V40.76l1.42-6.32,3.9-4.92L653,26.35h6.74l4.61-3.16,3.9-5.27,9.58,4.22L681,25l13.12.35,11-2.46V17.92L714,16.16,723.57,12l8.51,2.1,9.58-4.21,3.54-8.79h22.34l6,5.27,11.35,1.41,9.93,7,7.09,2.81L798,23.89l-11,1.58c-4.07,5.21-10.49,18.3-13.12,24.43l-9.22,14.76C755.05,72,742.35,76.3,731,69.22c-9.45,5.83-25.09,12.13-35.61,14.48C672.77,78.06,661.22,70,646.26,49.9Z" transform="translate(1 -0.05)"/><text id="text-30" data-name="text" class="cls-48" transform="translate(664.96 48.03)">MACARİS<tspan class="cls-49" x="76.2" y="0">T</tspan><tspan x="85.18" y="0">AN</tspan></text></g></svg>